<svg xmlns="http://www.w3.org/2000/svg" width="420" height="630" viewBox="0 0 420 630">
  <g id="svg_the_old_man_and_the_sea" transform="translate(3534 -2708)">
    <g id="Grupo_401" data-name="Grupo 401" transform="translate(-3 1)">
      <rect id="Rectángulo_302" data-name="Rectángulo 302" width="420" height="630" transform="translate(-3531 2707)" fill="#64d1a6"/>
      <g id="Grupo_391" data-name="Grupo 391" transform="translate(-151.48 -14.92)">
        <g id="Picture">
          <g id="Grupo_368" data-name="Grupo 368">
            <g id="Grupo_364" data-name="Grupo 364">
              <path id="Trazado_125" data-name="Trazado 125" d="M-3285.436,2919.246l-14.084-10.273,55.632-56.686Z" fill="#87f1d7"/>
              <path id="Trazado_126" data-name="Trazado 126" d="M-3258.5,2866.774l15.536-15.612-11.313,19.458Z" fill="#fbd7ca"/>
            </g>
            <g id="Grupo_367" data-name="Grupo 367" transform="translate(-3095.677 2851.163)">
              <path id="Trazado_125-2" data-name="Trazado 125" d="M-3257.972,2919.246l14.084-10.273-55.632-56.686Z" transform="translate(3300.441 -2851.163)" fill="#87f1d7"/>
              <path id="Trazado_126-2" data-name="Trazado 126" d="M-3242.968,2866.774l-15.536-15.612,11.313,19.458Z" transform="translate(3258.504 -2851.163)" fill="#fbd7ca"/>
            </g>
            <g id="Grupo_365" data-name="Grupo 365" transform="translate(-1100.553 -809.823) rotate(-19)">
              <path id="Trazado_125-3" data-name="Trazado 125" d="M-3285.436,2919.246l-14.084-10.273,55.632-56.686Z" fill="#87f1d7"/>
              <path id="Trazado_126-3" data-name="Trazado 126" d="M-3258.5,2866.774l15.536-15.612-11.313,19.458Z" fill="#fbd7ca"/>
            </g>
            <g id="Grupo_366" data-name="Grupo 366" transform="translate(-3069.29 3024.597) rotate(-161)">
              <path id="Trazado_125-4" data-name="Trazado 125" d="M14.084,0,0,10.273,55.632,66.959Z" transform="translate(0 0)" fill="#87f1d7"/>
              <path id="Trazado_126-4" data-name="Trazado 126" d="M0,3.846,15.537,19.458,4.224,0Z" transform="translate(41.016 48.625)" fill="#fbd7ca"/>
            </g>
          </g>
          <path id="Element5" d="M-3174.406,2775.056l-44.048,107.027,41.136-85.549-42.173,206.773,4.2,11.481,15.682-67.767-15.682,102.118,12.818,13.724,34.195,16.587,30.233-16.587,14.647-13.724-8.563-49.216,6.152,18.93,11.026-4.064-43.662-204.981,33.323,58.806-40-93.557-4.118-5.653Z" fill="#a8fef9"/>
          <g id="Grupo_370" data-name="Grupo 370">
            <path id="Element2" d="M-3196.4,3114.76l6.957-77.977h5.125l5.852,49.118,6.091-67.427h6.79l6.96,66.093,3.366-47.783h5.6l8.4,77.977-15.725-17.878,4.539,48.251h-12.873l2.178-46.527-6.275-7.336-5.663,7.336,3.016,46.527h-13.14l5.17-48.251Z" transform="translate(0.339 -10)" fill="#fd6f5e"/>
            <path id="Element1" d="M-3171.133,2860.6l.919,77.212h1.442l.866-77.212,33.861,226.961-9.935-14.335-8.267-62.952-6.161,53.2-11.2-70.566-8.681,70.566-8.4-53.2-7.165,62.952-9.076,14.335Z" fill="#ff4746"/>
          </g>
          <g id="Grupo_369" data-name="Grupo 369">
            <path id="Element3" d="M-3177.383,2833.708l2.764,43.074s.576,7.063,5.348,7.349,5.708-7.349,5.708-7.349l2.3-43.074,4.626,6.675-12.73-80.462-13.357,80.462Z" fill="#009b8b"/>
            <path id="Element4" d="M-3169.4,2845.747c-2.216,0-2.177,5.105-2.177,5.105l1.153,33.236h2.171l.859-33.236S-3167.181,2845.747-3169.4,2845.747Z" fill="#3d1e49"/>
          </g>
          <path id="Element6" d="M-3170.859,2923.98l.184,12.972s-.059,1.338,1.129,1.338,1.221-1.338,1.221-1.338l.212-12.972s6.256,8.071,5.8,15.989-7.237,16.466-7.237,16.466-6.49-7.19-6.716-16.466A26.149,26.149,0,0,1-3170.859,2923.98Z" fill="#754b1d"/>
        </g>
        <g id="Texts" transform="translate(-40.52 34.92)">
          <text id="THE_OLD_MAN_AND_THE_SEA" data-name="THE OLD MAN 
AND 
THE SEA" transform="translate(-3129 3172)" fill="#aefed4" font-size="34" font-family="SegoeUI, Segoe UI"><tspan x="-115.231" y="0">THE OLD MAN </tspan><tspan x="-40.259" y="41">AND </tspan><tspan x="-62.829" y="82">THE SEA</tspan></text>
          <text id="ERNEST_HEMINGWAY" data-name="ERNEST HEMINGWAY" transform="translate(-3129 3275)" fill="#aefed4" font-size="9" font-family="SegoeUI, Segoe UI"><tspan x="-42.776" y="0">ERNEST HEMINGWAY</tspan></text>
        </g>
      </g>
    </g>
  </g>
</svg>
