<svg xmlns="http://www.w3.org/2000/svg" width="420" height="630" viewBox="0 0 420 630">
  <g id="svg_the_lord_of_the_flies" transform="translate(1937 -2696)">
    <rect id="Rectángulo_298" data-name="Rectángulo 298" width="420" height="630" transform="translate(-1937 2696)" fill="#ed4c37"/>
    <g id="Grupo_393" data-name="Grupo 393" transform="translate(-8)">
      <g id="Texts" transform="translate(1402 87)">
        <text id="The_Lord_of_the_Flies" data-name="The Lord of the Flies" transform="translate(-3129 3172)" fill="#cb0f02" font-size="34" font-family="SegoeUI, Segoe UI"><tspan x="-179.679" y="0">THE LORD OF THE FLIES</tspan></text>
        <text id="William_Golding" data-name="William Golding" transform="translate(-3128 3197)" fill="#cb0f02" font-size="9" font-family="SegoeUI, Segoe UI"><tspan x="-38.415" y="0">WILLIAM GOLDING</tspan></text>
      </g>
      <g id="Grupo_388" data-name="Grupo 388">
        <circle id="Elipse_12" data-name="Elipse 12" cx="71" cy="71" r="71" transform="translate(-1894 2890)" fill="#fee1df"/>
        <g id="Grupo_388-2" data-name="Grupo 388">
          <path id="Trazado_144" data-name="Trazado 144" d="M-1690.65,2931.038l16.228,44.569-10.285,38.855s-20.57-15.542-24.684-34.741,0-37.484,0-37.484Z" fill="#fee1df"/>
          <path id="Trazado_145" data-name="Trazado 145" d="M-1691.792,2909.782a44.821,44.821,0,0,1,7.085-7.314,71.456,71.456,0,0,1,9.828-6.4l21.942,18.513-8,21.713-27.656-8.914Z" fill="#fee1df"/>
          <path id="Trazado_146" data-name="Trazado 146" d="M-1695.906,2914.125l1.828,15.542-15.313,8.228s-.4-8,2.971-13.942S-1695.906,2914.125-1695.906,2914.125Z" fill="#fee1df"/>
          <path id="Trazado_147" data-name="Trazado 147" d="M-1667.845,2896.069l21.327,18.707,11.027-27.777s-10.325-.6-18.414,1.665A39.756,39.756,0,0,0-1667.845,2896.069Z" fill="#fee1df"/>
          <path id="Trazado_148" data-name="Trazado 148" d="M-1633.846,2881.6l17.054,48.876,31.822-32.7s-8.879-8.967-21.1-13.01S-1633.846,2881.6-1633.846,2881.6Z" fill="#fee1df"/>
          <path id="Trazado_149" data-name="Trazado 149" d="M-1646.166,2918.388h21.774l6.086,17.311H-1655.5Z" fill="#fee1df"/>
          <path id="Trazado_150" data-name="Trazado 150" d="M-1651.668,2942.013l48.326,33.827-14.171-33.827Z" fill="#fee1df"/>
          <path id="Trazado_151" data-name="Trazado 151" d="M-1596.938,2917.846v34.892l-18.393-15.417Z" fill="#fee1df"/>
          <path id="Trazado_152" data-name="Trazado 152" d="M-1582.33,2899.721l-10.684,10.684v37.056l34.487,17.176s4.057-21.639-1.893-37.868S-1582.33,2899.721-1582.33,2899.721Z" fill="#fee1df"/>
          <path id="Trazado_153" data-name="Trazado 153" d="M-1604.017,2962.118l9.2-7.122,35.691,18.646H-1600.9l-3.121-12" fill="#fee1df"/>
          <path id="Trazado_154" data-name="Trazado 154" d="M-1579.289,2979.163l14.084,16.645s4.341-3.921,5.6-8.082a14.387,14.387,0,0,0-.56-8.563Z" fill="#fee1df"/>
          <path id="Trazado_155" data-name="Trazado 155" d="M-1604.017,2977.946h17.994l13.01,16.351h-28.13a25.636,25.636,0,0,1-3.595-8.331A17.467,17.467,0,0,1-1604.017,2977.946Z" fill="#fee1df"/>
          <path id="Trazado_156" data-name="Trazado 156" d="M-1612.625,3005.888c0,1.353,8.656,26.1,8.656,26.1s12.645-6.154,22.044-13.795a44.8,44.8,0,0,0,12.983-17.852l-35.028-3.246a37.311,37.311,0,0,1-4.057,5.139A26.028,26.028,0,0,1-1612.625,3005.888Z" fill="#fee1df"/>
          <path id="Trazado_157" data-name="Trazado 157" d="M-1632.506,3006.565h14.741l10.549,26.913a40.112,40.112,0,0,1-15.282,5.951c-8.317,1.15-17.987-1.353-17.987-1.353Z" fill="#fee1df"/>
          <path id="Trazado_158" data-name="Trazado 158" d="M-1637.374,3007.915l-9.2,31.241s-14.133-2.671-23.532-7.168-13.524-10.143-13.524-10.143l5.274-15.012,26.913-8.791Z" fill="#fee1df"/>
          <path id="Trazado_159" data-name="Trazado 159" d="M-1646.991,2990.368l10.563,9.6,10.483-16.965Z" fill="#fee1df"/>
          <path id="Trazado_160" data-name="Trazado 160" d="M-1608.019,2988.927s2.761-5.082,1.76-8.163-5.762-4.161-5.762-4.161l-12,4.962Z" fill="#fee1df"/>
          <path id="Trazado_161" data-name="Trazado 161" d="M-1616.5,2995.25l.8,4.322,3.6-.8,2.881-2.881s-.24-3.2,0-3.441-4.321,0-4.321,0Z" fill="#fee1df"/>
          <path id="Trazado_162" data-name="Trazado 162" d="M-1629.226,2997.651h5.762v4.561h-5.762Z" fill="#fee1df"/>
          <path id="Trazado_163" data-name="Trazado 163" d="M-1666.181,2985.622h-5.41s-2.263.364-3.641,4.577-1.873,12.276-1.873,12.276l10.923-3.849Z" transform="translate(1 -0.263)" fill="#fee1df"/>
          <path id="Trazado_164" data-name="Trazado 164" d="M-1660.5,2987.166v9.283h3.266l6-3.041Z" fill="#fee1df"/>
          <path id="Trazado_165" data-name="Trazado 165" d="M-1655.866,2945.882l-13.644,25.8s.234,6.346,3.433,9.051,9.363,1.769,9.363,1.769Z" fill="#fee1df"/>
          <path id="Trazado_167" data-name="Trazado 167" d="M-1544.329,2993.718s5.984-.3,8.25-2.57.811-6.491.811-6.491l-17.581-14.065Z" fill="#fee1df"/>
          <path id="Trazado_168" data-name="Trazado 168" d="M-1570.168,3011.177v4.4h6.082v-1.761Z" fill="#fee1df"/>
          <path id="Trazado_169" data-name="Trazado 169" d="M-1701.137,3031.4h9.051v-7.7s-3.875.468-6.138,2.393A10.435,10.435,0,0,0-1701.137,3031.4Z" fill="#fee1df"/>
        </g>
      </g>
    </g>
  </g>
</svg>
