<svg xmlns="http://www.w3.org/2000/svg" width="420" height="630" viewBox="0 0 420 630">
  <g id="svg_1984" transform="translate(2966 -2697)">
    <rect id="Rectángulo_301" data-name="Rectángulo 301" width="420" height="630" transform="translate(-2966 2697)" fill="#003c39"/>
    <g id="Grupo_390" data-name="Grupo 390" transform="translate(13 -9.671)">
      <g id="Grupo_373" data-name="Grupo 373" transform="translate(0 -5)">
        <path id="Element1" d="M-2769.5,2819.671l-159.247,157.13,159.247,109.888,160.242-109.888Z" transform="translate(-0.253)" fill="#ddc7c0"/>
        <path id="Trazado_127" data-name="Trazado 127" d="M66,0A66,66,0,1,1,0,66,66,66,0,0,1,66,0Z" transform="translate(-2835 2886)" fill="#01abb5"/>
        <path id="Trazado_128" data-name="Trazado 128" d="M27.5,0A27.5,27.5,0,1,1,0,27.5,27.5,27.5,0,0,1,27.5,0Z" transform="translate(-2796 2925)" fill="#009ba9"/>
      </g>
      <g id="Texts" transform="translate(360 97.671)">
        <text id="_1984" data-name="1984" transform="translate(-3129 3172)" fill="#439396" font-size="34" font-family="SegoeUI, Segoe UI"><tspan x="-36.656" y="0">1984</tspan></text>
        <text id="GEORGE_ORWELL" data-name="GEORGE ORWELL" transform="translate(-3128 3197)" fill="#439396" font-size="9" font-family="SegoeUI, Segoe UI"><tspan x="-34.781" y="0">GEORGE ORWELL</tspan></text>
      </g>
    </g>
  </g>
</svg>
