<svg xmlns="http://www.w3.org/2000/svg" width="500" height="570" viewBox="0 0 500 570"><g transform="translate(3019 -2696)"><path d="M0,0H500V570H0Z" transform="translate(-3019 2696)" fill="#003c39"/><g transform="translate(0 -5)"><path d="M-2769.5,2819.671l-159.247,157.13,159.247,109.888,160.242-109.888Z" transform="translate(-0.253)" fill="#ddc7c0"/><path d="M66,0A66,66,0,1,1,0,66,66,66,0,0,1,66,0Z" transform="translate(-2835 2886)" fill="#01abb5"/><path d="M27.5,0A27.5,27.5,0,1,1,0,27.5,27.5,27.5,0,0,1,27.5,0Z" transform="translate(-2796 2925)" fill="#009ba9"/></g><g transform="translate(360 30)"><text transform="translate(-3129 3172)" fill="#439396" font-size="34" font-family="Qanelas-Medium, Qanelas" font-weight="500"><tspan x="-34.391" y="0">1984</tspan></text><text transform="translate(-3128 3197)" fill="#439396" font-size="9" font-family="Qanelas-Medium, Qanelas" font-weight="500"><tspan x="-36.054" y="0">GEORGE ORWELL</tspan></text></g></g></svg>